{
	"asset":{
		"generator":"Khronos glTF Blender I/O v3.6.27",
		"version":"2.0"
	},
	"scene":0,
	"scenes":[
		{
			"name":"Scene",
			"nodes":[
				0,
				1
			]
		}
	],
	"nodes":[
		{
			"mesh":0,
			"name":"ForkFactory(0).spawn_asset(0)",
			"scale":[
				15,
				3.5,
				1.5
			],
			"translation":[
				0,
				0,
				-275.3702087402344
			]
		},
		{
			"mesh":1,
			"name":"ForkFactory(0).spawn_asset(0).001",
			"scale":[
				30.000001907348633,
				7,
				3
			]
		}
	],
	"meshes":[
		{
			"name":"Cube.006",
			"primitives":[
				{
					"attributes":{
						"POSITION":0,
						"NORMAL":1,
						"TEXCOORD_0":2
					},
					"indices":3
				}
			]
		},
		{
			"name":"Cube.008",
			"primitives":[
				{
					"attributes":{
						"POSITION":4,
						"NORMAL":5,
						"TEXCOORD_0":6
					},
					"indices":3
				}
			]
		}
	],
	"accessors":[
		{
			"bufferView":0,
			"componentType":5126,
			"count":120,
			"max":[
				1,
				1,
				1.5013275146484375
			],
			"min":[
				-8.179006576538086,
				-1,
				-14.173304557800293
			],
			"type":"VEC3"
		},
		{
			"bufferView":1,
			"componentType":5126,
			"count":120,
			"type":"VEC3"
		},
		{
			"bufferView":2,
			"componentType":5126,
			"count":120,
			"type":"VEC2"
		},
		{
			"bufferView":3,
			"componentType":5123,
			"count":180,
			"type":"SCALAR"
		},
		{
			"bufferView":4,
			"componentType":5126,
			"count":120,
			"max":[
				1,
				1,
				1.5013275146484375
			],
			"min":[
				-8.179006576538086,
				-1,
				-14.173304557800293
			],
			"type":"VEC3"
		},
		{
			"bufferView":5,
			"componentType":5126,
			"count":120,
			"type":"VEC3"
		},
		{
			"bufferView":6,
			"componentType":5126,
			"count":120,
			"type":"VEC2"
		}
	],
	"bufferViews":[
		{
			"buffer":0,
			"byteLength":1440,
			"byteOffset":0,
			"target":34962
		},
		{
			"buffer":0,
			"byteLength":1440,
			"byteOffset":1440,
			"target":34962
		},
		{
			"buffer":0,
			"byteLength":960,
			"byteOffset":2880,
			"target":34962
		},
		{
			"buffer":0,
			"byteLength":360,
			"byteOffset":3840,
			"target":34963
		},
		{
			"buffer":0,
			"byteLength":1440,
			"byteOffset":4200,
			"target":34962
		},
		{
			"buffer":0,
			"byteLength":1440,
			"byteOffset":5640,
			"target":34962
		},
		{
			"buffer":0,
			"byteLength":960,
			"byteOffset":7080,
			"target":34962
		}
	],
	"buffers":[
		{
			"byteLength":8040,
			"uri":"data:application/octet-stream;base64,"
		}
	]
}
