{
	"asset":{
		"generator":"Khronos glTF Blender I/O v3.6.27",
		"version":"2.0"
	},
	"scene":0,
	"scenes":[
		{
			"name":"Scene",
			"nodes":[
				0,
				1
			]
		}
	],
	"nodes":[
		{
			"mesh":0,
			"name":"ForkFactory(0).spawn_asset(0)",
			"scale":[
				15,
				3.5,
				1.5
			],
			"translation":[
				0,
				0,
				-296.6434326171875
			]
		},
		{
			"mesh":1,
			"name":"ForkFactory(0).spawn_asset(0).001",
			"scale":[
				29.999998092651367,
				7,
				3
			]
		}
	],
	"meshes":[
		{
			"name":"Cube.007",
			"primitives":[
				{
					"attributes":{
						"POSITION":0,
						"NORMAL":1,
						"TEXCOORD_0":2
					},
					"indices":3
				}
			]
		},
		{
			"name":"Cube.009",
			"primitives":[
				{
					"attributes":{
						"POSITION":4,
						"NORMAL":5,
						"TEXCOORD_0":6
					},
					"indices":3
				}
			]
		}
	],
	"accessors":[
		{
			"bufferView":0,
			"componentType":5126,
			"count":144,
			"max":[
				1.0000004768371582,
				1,
				1.3491082191467285
			],
			"min":[
				-8.888114929199219,
				-1,
				-16.11042594909668
			],
			"type":"VEC3"
		},
		{
			"bufferView":1,
			"componentType":5126,
			"count":144,
			"type":"VEC3"
		},
		{
			"bufferView":2,
			"componentType":5126,
			"count":144,
			"type":"VEC2"
		},
		{
			"bufferView":3,
			"componentType":5123,
			"count":216,
			"type":"SCALAR"
		},
		{
			"bufferView":4,
			"componentType":5126,
			"count":144,
			"max":[
				1.0000004768371582,
				1,
				1.3491082191467285
			],
			"min":[
				-8.888114929199219,
				-1,
				-16.11042594909668
			],
			"type":"VEC3"
		},
		{
			"bufferView":5,
			"componentType":5126,
			"count":144,
			"type":"VEC3"
		},
		{
			"bufferView":6,
			"componentType":5126,
			"count":144,
			"type":"VEC2"
		}
	],
	"bufferViews":[
		{
			"buffer":0,
			"byteLength":1728,
			"byteOffset":0,
			"target":34962
		},
		{
			"buffer":0,
			"byteLength":1728,
			"byteOffset":1728,
			"target":34962
		},
		{
			"buffer":0,
			"byteLength":1152,
			"byteOffset":3456,
			"target":34962
		},
		{
			"buffer":0,
			"byteLength":432,
			"byteOffset":4608,
			"target":34963
		},
		{
			"buffer":0,
			"byteLength":1728,
			"byteOffset":5040,
			"target":34962
		},
		{
			"buffer":0,
			"byteLength":1728,
			"byteOffset":6768,
			"target":34962
		},
		{
			"buffer":0,
			"byteLength":1152,
			"byteOffset":8496,
			"target":34962
		}
	],
	"buffers":[
		{
			"byteLength":9648,
			"uri":"make_2_forks_one_big.bin"
		}
	]
}
