{"accessors" : [{"bufferView" : 0, "byteOffset" : 0, "componentType" : 5123, "count" : 252, "type" : "SCALAR", "max" : [209], "min" : [0]}, {"bufferView" : 1, "byteOffset" : 0, "componentType" : 5126, "count" : 210, "type" : "VEC3", "max" : [1, 1, 1.5409555435180664], "min" : [-8.574196815490723, -1, -20.535266876220703], "name" : "POSITION"}, {"bufferView" : 1, "byteOffset" : 12, "componentType" : 5126, "count" : 210, "type" : "VEC3", "max" : [1.0000044107437134, 1.0000044107437134, 1.0000044107437134], "min" : [-1.0000044107437134, -1.0000044107437134, -1.0000044107437134], "name" : "NORMAL"}, {"bufferView" : 1, "byteOffset" : 24, "componentType" : 5126, "count" : 210, "type" : "VEC2", "max" : [0.875, 2], "min" : [0.125, 1], "name" : "TEXCOORD_0"}], "asset" : {"generator" : "Aspose.3D 24.1.0", "version" : "2.0"}, "buffers" : [{"uri" : "data:application/octet-stream;base64,", "byteLength" : 8576}], "bufferViews" : [{"buffer" : 0, "byteOffset" : 0, "byteLength" : 504, "target" : 34963}, {"buffer" : 0, "byteOffset" : 508, "byteLength" : 8064, "byteStride" : 32, "target" : 34962}], "meshes" : [{"primitives" : [{"attributes" : {"POSITION" : 1, "NORMAL" : 2, "TEXCOORD_0" : 3}, "indices" : 0, "mode" : 4}]}], "nodes" : [{"matrix" : [15, 0, 0, 0, 0, 3.5, 0, 0, 0, 0, 1.5, 0, 0, 0, 0, 1], "mesh" : 0, "name" : "ForkFactory(0).spawn_asset(0)"}], "scene" : 0, "scenes" : [{"nodes" : [0]}]}